<?xml version="1.0" encoding="UTF-8"?>
<svg width="3096px" height="509px" viewBox="0 0 3096 509" version="1.1" xmlns="http://www.w3.org/2000/svg" xmlns:xlink="http://www.w3.org/1999/xlink">
    <!-- Generator: Sketch 39.1 (31720) - http://www.bohemiancoding.com/sketch -->
    <title>logo bottom</title>
    <desc>Created with Sketch.</desc>
    <defs></defs>
    <g id="Page-1" stroke="none" stroke-width="1" fill="none" fill-rule="evenodd">
        <g id="logo-bottom" transform="translate(15.000000, 0.000000)">
            <g id="Group-2">
                <polyline id="Path" stroke="#979797" stroke-width="30" points="0 287 1.21106601e-14 493.842656 457.791489 493.842656 457.791504 287"></polyline>
                <g id="Group" transform="translate(76.000000, 0.000000)" stroke="#EA9D1E" stroke-width="60">
                    <path d="M0.9375,457.242188 L0.9375,287" id="Path-2"></path>
                    <path d="M91,457.064862 L91,200.801322" id="Path-2-Copy"></path>
                    <path d="M195,457.242188 L195,104.88554" id="Path-2-Copy-3"></path>
                    <path d="M305,457.064862 L305,0.183579382" id="Path-2-Copy-2"></path>
                </g>
            </g>
            <path d="M513.859375,356.18784 L578.473232,346.335373 C581.222772,358.861053 586.798143,368.369735 595.199514,374.861703 C603.600885,381.353672 615.362628,384.599607 630.485096,384.599607 C647.135086,384.599607 659.660578,381.544609 668.061949,375.434521 C673.713781,371.15746 676.539654,365.429338 676.539654,358.249985 C676.539654,353.361914 675.012155,349.314042 671.957111,346.106246 C668.749315,343.051202 661.570069,340.225328 650.419158,337.628541 C598.483411,326.172126 565.565805,315.708757 551.665355,306.238121 C532.418578,293.101432 522.795334,274.847818 522.795334,251.476731 C522.795334,230.396928 531.120204,212.677939 547.770194,198.319232 C564.420183,183.960525 590.234918,176.781279 625.215171,176.781279 C658.515151,176.781279 683.260636,182.203901 699.452369,193.049307 C715.644102,203.894713 726.794846,219.933454 732.904934,241.16601 L672.186238,252.39324 C669.589451,242.922604 664.663266,235.666983 657.407537,230.62616 C650.151807,225.585338 639.803001,223.064964 626.360807,223.064964 C609.405313,223.064964 597.261695,225.432588 589.92959,230.167906 C585.04152,233.528455 582.597521,237.881827 582.597521,243.228154 C582.597521,247.81072 584.73602,251.705843 589.013081,254.913639 C594.817665,259.1907 614.86609,265.224322 649.158959,273.014684 C683.451828,280.805046 707.395376,290.351915 720.990322,301.655578 C734.432515,313.111993 741.153511,329.074358 741.153511,349.543153 C741.153511,371.844974 731.835767,391.015088 713.199998,407.054068 C694.56423,423.093049 666.992872,431.11242 630.485096,431.11242 C597.337869,431.11242 571.103072,424.391424 551.779919,410.94923 C532.456766,397.507037 519.816711,379.253423 513.859375,356.18784 L513.859375,356.18784 Z M909.103714,182.280331 L909.103714,233.604813 L865.111301,233.604813 L865.111301,331.671235 C865.111301,351.529021 865.531363,363.099827 866.3715,366.383999 C867.211637,369.668171 869.121011,372.379482 872.099679,374.518013 C875.078347,376.656544 878.706157,377.725793 882.983219,377.725793 C888.940555,377.725793 897.570924,375.663669 908.874587,371.53936 L914.373639,421.489079 C899.403923,427.904672 882.448684,431.11242 863.507411,431.11242 C851.898244,431.11242 841.434875,429.164858 832.116991,425.269677 C822.799107,421.374496 815.963548,416.333749 811.610111,410.147285 C807.256673,403.960821 804.239862,395.597764 802.559588,385.057862 C801.184818,377.573004 800.497444,362.450763 800.497444,339.690685 L800.497444,233.604813 L770.940041,233.604813 L770.940041,182.280331 L800.497444,182.280331 L800.497444,133.934502 L865.111301,96.3576487 L865.111301,182.280331 L909.103714,182.280331 Z M1001.90021,256.517529 L943.472787,245.97768 C950.041132,222.453841 961.344625,205.040352 977.383606,193.736689 C993.422587,182.433026 1017.25157,176.781279 1048.87128,176.781279 C1077.58869,176.781279 1098.97368,180.179965 1113.02688,186.977438 C1127.08008,193.774911 1136.97064,202.40528 1142.69885,212.868806 C1148.42705,223.332332 1151.29112,242.540633 1151.29112,270.494285 L1150.60373,345.647991 C1150.60373,367.033299 1151.6348,382.804727 1153.69695,392.962749 C1155.75911,403.12077 1159.61604,414.004201 1165.26787,425.613368 L1101.57052,425.613368 C1099.89025,421.336306 1097.82813,414.997185 1095.38409,406.595814 C1094.31482,402.777009 1093.55108,400.256636 1093.09282,399.034618 C1082.09466,409.727272 1070.33292,417.746642 1057.80724,423.092969 C1045.28156,428.439296 1031.91594,431.11242 1017.70998,431.11242 C992.658624,431.11242 972.915699,424.315049 958.480616,410.720103 C944.045533,397.125157 936.8281,379.940793 936.8281,359.166493 C936.8281,345.418796 940.112223,333.160615 946.680567,322.391585 C953.248912,311.622555 962.452094,303.37406 974.290389,297.645853 C986.128685,291.917645 1003.19849,286.915086 1025.50031,282.638024 C1055.59249,276.986193 1076.44285,271.716321 1088.05202,266.828251 L1088.05202,260.41269 C1088.05202,248.039762 1084.99702,239.218455 1078.88693,233.948504 C1072.77685,228.678553 1061.24423,226.043617 1044.28873,226.043617 C1032.83232,226.043617 1023.89645,228.296679 1017.48086,232.802868 C1011.06527,237.309058 1005.87177,245.213866 1001.90021,256.517529 L1001.90021,256.517529 Z M1088.05202,308.75852 C1079.8034,311.508059 1066.74329,314.792182 1048.87128,318.610987 C1030.99927,322.429792 1019.3139,326.172165 1013.81482,329.838218 C1005.41345,335.795554 1001.21283,343.356674 1001.21283,352.521806 C1001.21283,361.534186 1004.57333,369.324431 1011.29442,375.892776 C1018.01552,382.46112 1026.56952,385.745243 1036.95667,385.745243 C1048.56583,385.745243 1059.6402,381.926496 1070.1801,374.288886 C1077.97047,368.484302 1083.08759,361.381431 1085.53162,352.98006 C1087.2119,347.480981 1088.05202,337.017612 1088.05202,321.58964 L1088.05202,308.75852 Z M1326.34426,182.280331 L1326.34426,233.604813 L1282.35185,233.604813 L1282.35185,331.671235 C1282.35185,351.529021 1282.77191,363.099827 1283.61205,366.383999 C1284.45218,369.668171 1286.36156,372.379482 1289.34023,374.518013 C1292.31889,376.656544 1295.9467,377.725793 1300.22376,377.725793 C1306.1811,377.725793 1314.81147,375.663669 1326.11513,371.53936 L1331.61418,421.489079 C1316.64447,427.904672 1299.68923,431.11242 1280.74796,431.11242 C1269.13879,431.11242 1258.67542,429.164858 1249.35754,425.269677 C1240.03965,421.374496 1233.20409,416.333749 1228.85066,410.147285 C1224.49722,403.960821 1221.48041,395.597764 1219.80013,385.057862 C1218.42536,377.573004 1217.73799,362.450763 1217.73799,339.690685 L1217.73799,233.604813 L1188.18059,233.604813 L1188.18059,182.280331 L1217.73799,182.280331 L1217.73799,133.934502 L1282.35185,96.3576487 L1282.35185,182.280331 L1326.34426,182.280331 Z M1352.92301,303.94685 C1352.92301,258.884951 1365.4485,225.509096 1390.49986,203.818284 C1411.42691,185.793524 1436.93615,176.781279 1467.02833,176.781279 C1500.48106,176.781279 1527.8233,187.741085 1549.05585,209.661026 C1570.28841,231.580967 1580.90453,261.863636 1580.90453,300.509942 C1580.90453,331.824143 1576.20747,356.455066 1566.81321,374.403449 C1557.41895,392.351833 1543.74783,406.290262 1525.79945,416.219155 C1507.85106,426.148048 1488.26089,431.11242 1467.02833,431.11242 C1432.96459,431.11242 1405.43142,420.190801 1384.42799,398.347237 C1363.42457,376.503672 1352.92301,345.037191 1352.92301,303.94685 L1352.92301,303.94685 Z M1395.31153,303.94685 C1395.31153,335.108298 1402.1089,358.440847 1415.70385,373.945195 C1429.2988,389.449543 1446.40679,397.201601 1467.02833,397.201601 C1487.49713,397.201601 1504.52874,389.411356 1518.12369,373.830631 C1531.71863,358.249907 1538.516,334.497296 1538.516,302.572087 C1538.516,272.479903 1531.68045,249.68198 1518.00912,234.177631 C1504.3378,218.673283 1487.34438,210.921225 1467.02833,210.921225 C1446.40679,210.921225 1429.2988,218.635096 1415.70385,234.063068 C1402.1089,249.49104 1395.31153,272.785401 1395.31153,303.94685 L1395.31153,303.94685 Z M1696.84287,425.613368 L1604.2755,182.280331 L1647.80966,182.280331 L1700.05065,328.005201 C1705.70248,343.738677 1710.89598,360.082917 1715.63129,377.038411 C1719.29735,364.207227 1724.41447,348.779486 1730.98281,330.754726 L1785.05682,182.280331 L1827.44534,182.280331 L1735.33623,425.613368 L1696.84287,425.613368 Z M2030.452,347.251881 L2073.06965,352.521806 C2066.34856,377.420414 2053.89944,396.743278 2035.72193,410.490976 C2017.54442,424.238674 1994.32643,431.11242 1966.06727,431.11242 C1930.47601,431.11242 1902.25546,420.152614 1881.40479,398.232673 C1860.55411,376.312732 1850.12893,345.571814 1850.12893,306.008994 C1850.12893,265.071405 1860.66868,233.299424 1881.74848,210.692098 C1902.82828,188.084773 1930.17052,176.781279 1963.776,176.781279 C1996.31222,176.781279 2022.8907,187.855648 2043.51225,210.004717 C2064.1338,232.153786 2074.44442,263.314767 2074.44442,303.488595 C2074.44442,305.93263 2074.36804,309.598628 2074.21529,314.486699 L1892.74658,314.486699 C1894.27411,341.218333 1901.83523,361.686821 1915.43017,375.892776 C1929.02512,390.09873 1945.98036,397.201601 1966.2964,397.201601 C1981.41887,397.201601 1994.32623,393.230103 2005.01889,385.286989 C2015.71154,377.343875 2024.18916,364.665632 2030.452,347.251881 L2030.452,347.251881 Z M1895.03785,280.57588 L2030.91026,280.57588 C2029.07723,260.107085 2023.88373,244.755719 2015.32961,234.521322 C2002.19292,218.635093 1985.16131,210.692098 1964.23426,210.692098 C1945.29298,210.692098 1929.3688,217.031219 1916.46124,229.709652 C1903.55368,242.388084 1896.41262,259.343324 1895.03785,280.57588 L1895.03785,280.57588 Z M2124.39414,425.613368 L2124.39414,182.280331 L2161.51273,182.280331 L2161.51273,219.169803 C2170.98337,201.908804 2179.7283,190.528936 2187.74779,185.029857 C2195.76728,179.530778 2204.58859,176.781279 2214.21198,176.781279 C2228.11243,176.781279 2242.2418,181.211027 2256.6005,190.070654 L2242.39462,228.334889 C2232.31297,222.377553 2222.23148,219.39893 2212.14983,219.39893 C2203.13746,219.39893 2195.04171,222.110241 2187.86236,227.532944 C2180.683,232.955647 2175.56588,240.47858 2172.51084,250.101969 C2167.92827,264.76618 2165.63702,280.80492 2165.63702,298.218671 L2165.63702,425.613368 L2124.39414,425.613368 Z M2290.96958,425.613368 L2290.96958,214.358133 L2254.53836,214.358133 L2254.53836,182.280331 L2290.96958,182.280331 L2290.96958,156.388963 C2290.96958,140.044478 2292.4207,127.90086 2295.32299,119.957745 C2299.29455,109.265092 2306.28286,100.596534 2316.28813,93.9518136 C2326.2934,87.3070929 2340.3082,83.9847824 2358.33296,83.9847824 C2369.94213,83.9847824 2382.77312,85.3595316 2396.82632,88.1090712 L2390.63989,124.082034 C2382.08576,122.554512 2373.99002,121.790763 2366.35241,121.790763 C2353.82673,121.790763 2344.96723,124.463886 2339.77366,129.810213 C2334.58008,135.15654 2331.98334,145.161659 2331.98334,159.82587 L2331.98334,182.280331 L2379.41266,182.280331 L2379.41266,214.358133 L2331.98334,214.358133 L2331.98334,425.613368 L2290.96958,425.613368 Z M2410.57395,425.613368 L2410.57395,89.7129612 L2451.81684,89.7129612 L2451.81684,425.613368 L2410.57395,425.613368 Z M2500.39179,303.94685 C2500.39179,258.884951 2512.91729,225.509096 2537.96865,203.818284 C2558.8957,185.793524 2584.40493,176.781279 2614.49712,176.781279 C2647.94985,176.781279 2675.29208,187.741085 2696.52464,209.661026 C2717.75719,231.580967 2728.37331,261.863636 2728.37331,300.509942 C2728.37331,331.824143 2723.67625,356.455066 2714.28199,374.403449 C2704.88773,392.351833 2691.21661,406.290262 2673.26823,416.219155 C2655.31985,426.148048 2635.72967,431.11242 2614.49712,431.11242 C2580.43338,431.11242 2552.9002,420.190801 2531.89678,398.347237 C2510.89335,376.503672 2500.39179,345.037191 2500.39179,303.94685 L2500.39179,303.94685 Z M2542.78032,303.94685 C2542.78032,335.108298 2549.57769,358.440847 2563.17263,373.945195 C2576.76758,389.449543 2593.87557,397.201601 2614.49712,397.201601 C2634.96591,397.201601 2651.99753,389.411356 2665.59247,373.830631 C2679.18742,358.249907 2685.98479,334.497296 2685.98479,302.572087 C2685.98479,272.479903 2679.14923,249.68198 2665.47791,234.177631 C2651.80659,218.673283 2634.81316,210.921225 2614.49712,210.921225 C2593.87557,210.921225 2576.76758,218.635096 2563.17263,234.063068 C2549.57769,249.49104 2542.78032,272.785401 2542.78032,303.94685 L2542.78032,303.94685 Z M2821.62806,425.613368 L2747.16174,182.280331 L2789.77939,182.280331 L2828.50188,322.735276 L2842.93689,374.976267 C2843.5479,372.37948 2847.74852,355.653365 2855.53888,324.79742 L2894.26137,182.280331 L2936.64989,182.280331 L2973.08111,323.422658 L2985.22485,369.93547 L2999.20161,322.964403 L3040.90275,182.280331 L3081,182.280331 L3004.92979,425.613368 L2962.08301,425.613368 L2923.36052,279.888498 L2913.96631,238.416484 L2864.70397,425.613368 L2821.62806,425.613368 Z" id="statoverflow-copy" fill="#FFFFFF"></path>
        </g>
    </g>
</svg>