<?xml version="1.0" encoding="UTF-8"?>
<svg width="1897px" height="509px" viewBox="0 0 1897 509" version="1.1" xmlns="http://www.w3.org/2000/svg" xmlns:xlink="http://www.w3.org/1999/xlink">
    <!-- Generator: Sketch 39.1 (31720) - http://www.bohemiancoding.com/sketch -->
    <title>logo bottom</title>
    <desc>Created with Sketch.</desc>
    <defs></defs>
    <g id="Page-1" stroke="none" stroke-width="1" fill="none" fill-rule="evenodd">
        <g id="logo-bottom" transform="translate(15.000000, 0.000000)">
            <g id="Group-2">
                <polyline id="Path" stroke="#979797" stroke-width="30" points="0 287 1.21106601e-14 493.842656 457.791489 493.842656 457.791504 287"></polyline>
                <g id="Group" transform="translate(76.000000, 0.000000)" stroke="#EA9D1E" stroke-width="60">
                    <path d="M0.9375,457.242188 L0.9375,287" id="Path-2"></path>
                    <path d="M91,457.064862 L91,200.801322" id="Path-2-Copy"></path>
                    <path d="M195,457.242188 L195,104.88554" id="Path-2-Copy-3"></path>
                    <path d="M305,457.064862 L305,0.183579382" id="Path-2-Copy-2"></path>
                </g>
            </g>
            <path d="M513.859375,297.012695 L548.283203,291.763672 C549.748054,298.436882 552.718402,303.50275 557.194336,306.961426 C561.67027,310.420102 567.936483,312.149414 575.993164,312.149414 C584.863651,312.149414 591.536761,310.521826 596.012695,307.266602 C599.023778,304.987944 600.529297,301.936217 600.529297,298.111328 C600.529297,295.507148 599.715503,293.350594 598.087891,291.641602 C596.378898,290.013989 592.554066,288.50847 586.613281,287.125 C558.943872,281.021454 541.406613,275.446965 534.000977,270.401367 C523.747019,263.402634 518.620117,253.677797 518.620117,241.226562 C518.620117,229.996038 523.055294,220.556028 531.925781,212.90625 C540.796268,205.256472 554.549386,201.431641 573.185547,201.431641 C590.926521,201.431641 604.109983,204.320609 612.736328,210.098633 C621.362673,215.876656 627.303369,224.421493 630.558594,235.733398 L598.209961,241.714844 C596.82649,236.669246 594.202005,232.803724 590.336426,230.118164 C586.470847,227.432604 580.957393,226.089844 573.795898,226.089844 C564.76265,226.089844 558.292988,227.351224 554.386719,229.874023 C551.782539,231.664397 550.480469,233.98371 550.480469,236.832031 C550.480469,239.27345 551.61978,241.348624 553.898438,243.057617 C556.990901,245.336274 567.671946,248.55076 585.941895,252.701172 C604.211843,256.851583 616.968063,261.937795 624.210938,267.959961 C631.372432,274.063507 634.953125,282.567654 634.953125,293.472656 C634.953125,305.354226 629.988982,315.56734 620.060547,324.112305 C610.132112,332.657269 595.443131,336.929688 575.993164,336.929688 C558.333571,336.929688 544.35666,333.348994 534.062012,326.1875 C523.767364,319.026006 517.033219,309.301168 513.859375,297.012695 L513.859375,297.012695 Z M724.430664,204.361328 L724.430664,231.705078 L700.993164,231.705078 L700.993164,283.951172 C700.993164,294.530652 701.216957,300.695141 701.664551,302.444824 C702.112144,304.194507 703.129387,305.638992 704.716309,306.77832 C706.303231,307.917649 708.235991,308.487305 710.514648,308.487305 C713.688492,308.487305 718.286428,307.388683 724.308594,305.191406 L727.238281,331.802734 C719.262981,335.22072 710.229868,336.929688 700.138672,336.929688 C693.953745,336.929688 688.379257,335.8921 683.415039,333.816895 C678.450822,331.741689 674.809094,329.056169 672.489746,325.760254 C670.170399,322.464339 668.563156,318.008817 667.667969,312.393555 C666.935543,308.405905 666.569336,300.349344 666.569336,288.223633 L666.569336,231.705078 L650.822266,231.705078 L650.822266,204.361328 L666.569336,204.361328 L666.569336,178.604492 L700.993164,158.584961 L700.993164,204.361328 L724.430664,204.361328 Z M773.869141,243.912109 L742.741211,238.296875 C746.240577,225.76426 752.262653,216.487009 760.807617,210.464844 C769.352582,204.442678 782.047767,201.431641 798.893555,201.431641 C814.19311,201.431641 825.586226,203.242332 833.073242,206.86377 C840.560259,210.485207 845.829575,215.083143 848.881348,220.657715 C851.933121,226.232287 853.458984,236.465746 853.458984,251.358398 L853.092773,291.397461 C853.092773,302.790747 853.642084,311.19317 854.740723,316.60498 C855.839361,322.016791 857.894191,327.815073 860.905273,334 L826.969727,334 C826.07454,331.721343 824.975918,328.344098 823.673828,323.868164 C823.104164,321.833649 822.697267,320.490889 822.453125,319.839844 C816.593721,325.536487 810.327507,329.808905 803.654297,332.657227 C796.981086,335.505548 789.860389,336.929688 782.291992,336.929688 C768.945571,336.929688 758.427285,333.308304 750.736816,326.06543 C743.046348,318.822555 739.201172,309.667373 739.201172,298.599609 C739.201172,291.275354 740.950829,284.744658 744.450195,279.007324 C747.949562,273.269991 752.85267,268.875504 759.159668,265.82373 C765.466666,262.771957 774.560813,260.106782 786.442383,257.828125 C802.474364,254.817042 813.582651,252.009453 819.767578,249.405273 L819.767578,245.987305 C819.767578,239.395475 818.13999,234.695815 814.884766,231.888184 C811.629541,229.080552 805.485397,227.676758 796.452148,227.676758 C790.348602,227.676758 785.587908,228.877104 782.169922,231.277832 C778.751936,233.67856 775.985037,237.889944 773.869141,243.912109 L773.869141,243.912109 Z M819.767578,271.744141 C815.373025,273.208992 808.415087,274.958649 798.893555,276.993164 C789.372023,279.027679 783.146499,281.021475 780.216797,282.974609 C775.740863,286.148453 773.50293,290.176733 773.50293,295.05957 C773.50293,299.861027 775.293276,304.011376 778.874023,307.510742 C782.454771,311.010109 787.012017,312.759766 792.545898,312.759766 C798.730825,312.759766 804.630831,310.725281 810.246094,306.65625 C814.396505,303.563787 817.122715,299.779645 818.424805,295.303711 C819.319991,292.374009 819.767578,286.79952 819.767578,278.580078 L819.767578,271.744141 Z M946.720703,204.361328 L946.720703,231.705078 L923.283203,231.705078 L923.283203,283.951172 C923.283203,294.530652 923.506996,300.695141 923.95459,302.444824 C924.402183,304.194507 925.419426,305.638992 927.006348,306.77832 C928.59327,307.917649 930.52603,308.487305 932.804688,308.487305 C935.978531,308.487305 940.576467,307.388683 946.598633,305.191406 L949.52832,331.802734 C941.55302,335.22072 932.519907,336.929688 922.428711,336.929688 C916.243784,336.929688 910.669296,335.8921 905.705078,333.816895 C900.740861,331.741689 897.099133,329.056169 894.779785,325.760254 C892.460438,322.464339 890.853195,318.008817 889.958008,312.393555 C889.225582,308.405905 888.859375,300.349344 888.859375,288.223633 L888.859375,231.705078 L873.112305,231.705078 L873.112305,204.361328 L888.859375,204.361328 L888.859375,178.604492 L923.283203,158.584961 L923.283203,204.361328 L946.720703,204.361328 Z M960.880859,269.180664 C960.880859,245.173383 967.55397,227.391985 980.900391,215.835938 C992.049535,206.233025 1005.63989,201.431641 1021.67188,201.431641 C1039.49423,201.431641 1054.06114,207.270612 1065.37305,218.94873 C1076.68495,230.626849 1082.34082,246.760314 1082.34082,267.349609 C1082.34082,284.032635 1079.8384,297.155063 1074.8335,306.717285 C1069.82859,316.279507 1062.54513,323.705377 1052.98291,328.995117 C1043.42069,334.284857 1032.98378,336.929688 1021.67188,336.929688 C1003.524,336.929688 988.855362,331.111061 977.665527,319.473633 C966.475693,307.836205 960.880859,291.07205 960.880859,269.180664 L960.880859,269.180664 Z M983.463867,269.180664 C983.463867,285.78231 987.08525,298.213012 994.328125,306.473145 C1001.571,314.733277 1010.68549,318.863281 1021.67188,318.863281 C1032.57688,318.863281 1041.65068,314.712932 1048.89355,306.412109 C1056.13643,298.111287 1059.75781,285.456791 1059.75781,268.448242 C1059.75781,252.416261 1056.11608,240.270386 1048.83252,232.010254 C1041.54895,223.750121 1032.4955,219.620117 1021.67188,219.620117 C1010.68549,219.620117 1001.571,223.729777 994.328125,231.949219 C987.08525,240.168661 983.463867,252.579019 983.463867,269.180664 L983.463867,269.180664 Z M1144.1084,334 L1094.79199,204.361328 L1117.98535,204.361328 L1145.81738,281.998047 C1148.82847,290.38025 1151.59536,299.087845 1154.11816,308.121094 C1156.0713,301.285122 1158.79751,293.065803 1162.29688,283.462891 L1191.10547,204.361328 L1213.68848,204.361328 L1164.61621,334 L1144.1084,334 Z M1321.84277,292.251953 L1344.54785,295.05957 C1340.9671,308.324611 1334.33468,318.619104 1324.65039,325.943359 C1314.9661,333.267615 1302.59643,336.929688 1287.54102,336.929688 C1268.57933,336.929688 1253.54449,331.090716 1242.43604,319.412598 C1231.32758,307.734479 1225.77344,291.356876 1225.77344,270.279297 C1225.77344,248.469292 1231.38862,231.542378 1242.61914,219.498047 C1253.84967,207.453716 1268.41658,201.431641 1286.32031,201.431641 C1303.65438,201.431641 1317.8144,207.331647 1328.80078,219.131836 C1339.78716,230.932025 1345.28027,247.533422 1345.28027,268.936523 C1345.28027,270.238613 1345.23958,272.191719 1345.1582,274.795898 L1248.47852,274.795898 C1249.29232,289.037506 1253.3206,299.942345 1260.56348,307.510742 C1267.80635,315.079139 1276.83946,318.863281 1287.66309,318.863281 C1295.71977,318.863281 1302.59633,316.747417 1308.29297,312.515625 C1313.98961,308.283833 1318.50617,301.529343 1321.84277,292.251953 L1321.84277,292.251953 Z M1249.69922,256.729492 L1322.08691,256.729492 C1321.11035,245.82449 1318.34345,237.645861 1313.78613,232.193359 C1306.7874,223.729775 1297.7136,219.498047 1286.56445,219.498047 C1276.47326,219.498047 1267.98945,222.875292 1261.11279,229.629883 C1254.23613,236.384474 1250.43164,245.417587 1249.69922,256.729492 L1249.69922,256.729492 Z M1371.8916,334 L1371.8916,204.361328 L1391.66699,204.361328 L1391.66699,224.014648 C1396.71259,214.818639 1401.37156,208.755874 1405.64404,205.826172 C1409.91653,202.89647 1414.61619,201.431641 1419.74316,201.431641 C1427.1488,201.431641 1434.67639,203.791643 1442.32617,208.511719 L1434.75781,228.897461 C1429.38669,225.723617 1424.01565,224.136719 1418.64453,224.136719 C1413.84307,224.136719 1409.52997,225.581203 1405.70508,228.470215 C1401.88019,231.359227 1399.15398,235.367162 1397.52637,240.494141 C1395.08495,248.30668 1393.86426,256.851516 1393.86426,266.128906 L1393.86426,334 L1371.8916,334 Z M1460.63672,334 L1460.63672,221.451172 L1441.22754,221.451172 L1441.22754,204.361328 L1460.63672,204.361328 L1460.63672,190.567383 C1460.63672,181.859657 1461.40982,175.389995 1462.95605,171.158203 C1465.07195,165.46156 1468.79506,160.843279 1474.12549,157.303223 C1479.45592,153.763166 1486.92248,151.993164 1496.52539,151.993164 C1502.71032,151.993164 1509.54619,152.725579 1517.0332,154.19043 L1513.7373,173.355469 C1509.17999,172.541663 1504.86688,172.134766 1500.79785,172.134766 C1494.12464,172.134766 1489.40464,173.558905 1486.6377,176.407227 C1483.87075,179.255548 1482.4873,184.585898 1482.4873,192.398438 L1482.4873,204.361328 L1507.75586,204.361328 L1507.75586,221.451172 L1482.4873,221.451172 L1482.4873,334 L1460.63672,334 Z M1524.35742,334 L1524.35742,155.044922 L1546.33008,155.044922 L1546.33008,334 L1524.35742,334 Z M1572.20898,269.180664 C1572.20898,245.173383 1578.88209,227.391985 1592.22852,215.835938 C1603.37766,206.233025 1616.96802,201.431641 1633,201.431641 C1650.82235,201.431641 1665.38927,207.270612 1676.70117,218.94873 C1688.01308,230.626849 1693.66895,246.760314 1693.66895,267.349609 C1693.66895,284.032635 1691.16653,297.155063 1686.16162,306.717285 C1681.15671,316.279507 1673.87326,323.705377 1664.31104,328.995117 C1654.74881,334.284857 1644.31191,336.929688 1633,336.929688 C1614.85212,336.929688 1600.18349,331.111061 1588.99365,319.473633 C1577.80382,307.836205 1572.20898,291.07205 1572.20898,269.180664 L1572.20898,269.180664 Z M1594.79199,269.180664 C1594.79199,285.78231 1598.41338,298.213012 1605.65625,306.473145 C1612.89912,314.733277 1622.01362,318.863281 1633,318.863281 C1643.905,318.863281 1652.9788,314.712932 1660.22168,306.412109 C1667.46455,298.111287 1671.08594,285.456791 1671.08594,268.448242 C1671.08594,252.416261 1667.44421,240.270386 1660.16064,232.010254 C1652.87708,223.750121 1643.82362,219.620117 1633,219.620117 C1622.01362,219.620117 1612.89912,223.729777 1605.65625,231.949219 C1598.41338,240.168661 1594.79199,252.579019 1594.79199,269.180664 L1594.79199,269.180664 Z M1743.35156,334 L1703.67871,204.361328 L1726.38379,204.361328 L1747.01367,279.19043 L1754.7041,307.022461 C1755.02962,305.63899 1757.26756,296.727947 1761.41797,280.289062 L1782.04785,204.361328 L1804.63086,204.361328 L1824.04004,279.556641 L1830.50977,304.336914 L1837.95605,279.3125 L1860.17285,204.361328 L1881.53516,204.361328 L1841.00781,334 L1818.18066,334 L1797.55078,256.363281 L1792.5459,234.268555 L1766.30078,334 L1743.35156,334 Z" id="statoverflow-copy" fill="#FFFFFF"></path>
        </g>
    </g>
</svg>